<svg width="32" height="32" viewBox="0 0 32 32" fill="none" xmlns="http://www.w3.org/2000/svg">
<path d="M27.85 29H30L24 14H21.65L15.65 29H17.8L19.4 25H26.25L27.85 29ZM20.2 23L22.82 16.44L25.45 23H20.2ZM18 7V5H11V2H9V5H2V7H12.74C12.1859 9.28537 11.092 11.4046 9.55 13.18C8.5448 11.9335 7.76939 10.5181 7.26 9H5.16C5.78947 11.0366 6.80832 12.9317 8.16 14.58C6.66611 16.0291 4.91656 17.1887 3 18L3.75 19.86C5.90358 18.9507 7.86497 17.6408 9.53 16C11.1648 17.6633 13.1259 18.9707 15.29 19.84L16 18C14.0724 17.2549 12.3266 16.1058 10.88 14.63C12.7946 12.448 14.1411 9.82714 14.8 7H18Z" fill="black"/>
</svg>
